<?xml version="1.0" standalone="no"?>
<!DOCTYPE svg PUBLIC "-//W3C//DTD SVG 20010904//EN"
 "http://www.w3.org/TR/2001/REC-SVG-20010904/DTD/svg10.dtd">
<svg version="1.0" xmlns="http://www.w3.org/2000/svg"
 width="512.000000pt" height="512.000000pt" viewBox="0 0 512.000000 512.000000"
 preserveAspectRatio="xMidYMid meet">

<g transform="translate(0.000000,512.000000) scale(0.100000,-0.100000)"
fill="#000000" stroke="none">
<path d="M877 3943 c-11 -10 -8 -123 3 -123 6 0 10 28 10 65 0 65 -1 71 -13
58z"/>
<path d="M777 3863 c-11 -10 -8 -103 3 -103 6 0 10 25 10 55 0 56 -1 60 -13
48z"/>
<path d="M870 3674 c0 -41 4 -63 10 -59 6 3 10 33 10 66 0 33 -4 59 -10 59 -6
0 -10 -29 -10 -66z"/>
<path d="M770 3650 c0 -16 5 -30 10 -30 6 0 10 14 10 30 0 17 -4 30 -10 30 -5
0 -10 -13 -10 -30z"/>
<path d="M870 3464 c0 -41 4 -63 10 -59 6 3 10 33 10 66 0 33 -4 59 -10 59 -6
0 -10 -29 -10 -66z"/>
<path d="M766 3158 c-9 -463 -14 -1786 -6 -1653 4 66 10 480 14 920 4 440 9
851 12 913 2 61 0 112 -5 112 -5 0 -11 -132 -15 -292z"/>
<path d="M866 3258 c-3 -57 -8 -482 -12 -944 l-6 -842 25 5 c33 6 169 -20 240
-47 84 -31 197 -111 266 -186 63 -69 128 -184 156 -274 22 -73 35 -201 22
-217 -7 -10 57 -13 314 -14 178 0 596 -4 929 -8 591 -8 776 -3 475 11 -82 4
-190 10 -238 14 -49 3 -96 2 -105 -2 -39 -16 -95 4 -328 117 l-245 119 -367
-45 c-202 -25 -378 -46 -392 -47 -18 -2 -26 2 -28 17 -3 19 18 24 270 73 364
71 371 73 361 83 -5 5 -143 -18 -321 -53 -279 -54 -353 -63 -314 -39 6 4 55
17 107 30 52 13 95 27 95 32 0 11 -16 11 -60 -1 -19 -5 -63 -16 -98 -24 l-62
-14 -16 36 c-17 43 -16 44 89 101 l63 34 70 -28 c42 -17 96 -30 138 -33 72 -5
71 -15 -1 -27 -25 -4 -43 -12 -43 -20 0 -10 15 -9 72 5 39 11 74 23 77 28 3 4
31 14 62 20 170 38 332 168 406 330 l24 52 415 0 c384 0 419 1 469 19 141 50
294 192 370 343 l45 90 0 334 0 335 -537 -3 -538 -3 -67 -26 c-37 -14 -88 -40
-115 -57 -107 -69 -217 -210 -248 -317 l-15 -50 -143 -48 c-78 -27 -194 -66
-257 -88 l-115 -40 -49 -65 c-27 -35 -53 -64 -57 -64 -5 0 -9 41 -9 90 0 104
-14 142 -77 201 -42 41 -79 62 -135 77 l-37 10 -3 -229 c-3 -210 1 -262 15
-209 6 22 27 28 27 8 0 -7 -10 -29 -21 -48 -20 -32 -32 -90 -19 -90 3 0 47 61
98 135 83 121 112 154 112 126 0 -5 -34 -58 -75 -118 -42 -59 -89 -127 -106
-151 -16 -24 -33 -41 -38 -38 -4 3 -41 -44 -82 -104 -41 -60 -80 -110 -86
-110 -7 0 -13 2 -13 5 0 3 25 45 55 94 57 93 61 101 46 101 -5 0 -33 -38 -62
-85 -29 -47 -56 -88 -60 -91 -5 -2 -24 2 -43 10 l-35 15 28 105 c19 71 25 106
17 106 -6 0 -22 -43 -36 -96 -22 -89 -34 -114 -47 -101 -3 3 25 142 61 309 69
317 71 328 58 328 -5 0 -23 -66 -41 -147 -17 -82 -48 -223 -68 -315 -20 -93
-42 -168 -47 -168 -41 1 -38 32 65 711 l11 76 -111 241 -112 241 2 301 c0 166
-1 303 -4 306 -3 3 -8 -41 -11 -98z m158 -1369 c-30 -206 -56 -379 -58 -385
-2 -6 -22 -8 -52 -5 l-48 6 2 445 c1 245 5 511 8 592 l7 148 98 -213 98 -214
-55 -374z m1466 473 c0 -4 -33 -40 -74 -81 -49 -49 -76 -69 -81 -61 -5 8 18
38 61 81 62 62 94 83 94 61z m1040 -189 c0 -228 -6 -250 -95 -338 -96 -96 -88
-95 -530 -95 l-385 0 0 198 c0 185 2 200 23 247 31 66 123 150 185 169 37 12
126 15 425 15 l377 1 0 -197z m-1293 -55 c-2 -7 -40 -112 -83 -232 l-79 -219
-120 -90 c-66 -49 -121 -91 -123 -92 -2 -2 1 -6 6 -9 6 -3 65 36 133 87 l122
92 29 80 c16 44 54 150 86 235 l57 155 5 -153 5 -154 42 31 c48 35 53 36 53
19 0 -7 -22 -29 -49 -48 l-49 -35 -4 -75 c-6 -93 -39 -168 -109 -245 -68 -74
-138 -107 -218 -104 -60 2 -62 2 -182 -76 -82 -53 -117 -80 -108 -86 16 -10
20 -7 -65 -57 -64 -37 -86 -44 -86 -24 0 5 23 21 50 37 28 16 50 36 50 43 0
11 -5 11 -27 -3 -14 -10 -41 -26 -59 -37 -32 -19 -33 -19 -43 1 -9 16 -5 24
27 49 46 38 35 55 -12 19 l-34 -27 -79 80 -79 79 54 71 55 71 31 -58 c35 -64
48 -84 89 -132 l27 -33 100 74 c55 40 99 78 100 84 0 6 -12 21 -26 35 -14 13
-38 47 -52 74 -22 44 -25 63 -26 152 -1 121 7 125 -132 -54 -54 -68 -102 -122
-108 -120 -6 2 -37 -31 -69 -72 -32 -42 -62 -77 -66 -79 -5 -1 -13 3 -19 11
-9 10 4 36 56 115 37 55 70 101 75 102 4 0 7 -11 7 -25 0 -14 4 -25 9 -25 5 0
59 63 120 140 63 79 116 138 123 135 7 -2 40 30 73 72 l60 76 225 78 c124 43
229 78 234 78 4 1 6 -5 3 -11z m-318 -804 c-16 -19 -109 -74 -126 -74 -28 0
-10 18 50 52 69 40 98 48 76 22z m652 -453 l224 -110 -346 0 c-190 -1 -461 2
-601 6 l-256 6 -6 50 c-3 28 -3 53 -1 56 3 2 175 26 383 52 207 26 378 47 378
48 1 1 103 -48 225 -108z"/>
<path d="M1967 1450 c-33 -22 -53 -41 -47 -45 13 -8 120 60 120 75 0 16 -11
11 -73 -30z"/>
<path d="M1668 1336 l-97 -73 22 -21 22 -21 117 76 117 77 -30 18 c-16 10 -35
18 -42 18 -6 0 -56 -33 -109 -74z"/>
<path d="M1125 2588 c-23 -134 -29 -218 -17 -218 4 0 14 39 20 88 7 48 16 104
19 125 3 23 2 37 -5 37 -6 0 -14 -15 -17 -32z"/>
<path d="M1893 2165 c-40 -52 -68 -97 -64 -100 5 -3 40 34 78 82 83 105 88
113 71 113 -7 -1 -45 -43 -85 -95z"/>
<path d="M1184 1853 c-8 -32 -18 -65 -20 -75 -3 -9 0 -19 5 -22 6 -4 15 12 21
36 6 24 15 56 20 72 13 37 12 46 0 46 -5 0 -17 -26 -26 -57z"/>
<path d="M806 1399 l-28 -40 28 -42 c27 -39 29 -40 31 -17 6 67 7 140 3 140
-3 0 -18 -19 -34 -41z"/>
<path d="M2561 1016 c-64 -7 -96 -15 -99 -25 -4 -11 3 -12 29 -8 19 4 76 12
127 18 50 6 92 16 92 20 0 11 -24 10 -149 -5z"/>
<path d="M1464 729 c12 -8 25 -8 40 -1 18 9 16 11 -19 11 -33 0 -37 -1 -21
-10z"/>
<path d="M3495 730 c3 -5 33 -10 66 -10 33 0 59 4 59 10 0 6 -29 10 -66 10
-41 0 -63 -4 -59 -10z"/>
<path d="M1615 651 c25 -12 1835 -32 1854 -21 8 4 -237 10 -545 14 -307 3
-732 8 -944 11 -236 3 -377 1 -365 -4z"/>
</g>
</svg>
